<svg width="1200" height="900" viewBox="0 0 1200 900" fill="none" xmlns="http://www.w3.org/2000/svg">
<defs>
<linearGradient id="bg" x1="130" y1="84" x2="1050" y2="840" gradientUnits="userSpaceOnUse">
<stop stop-color="#F5F8F4"/>
<stop offset="0.56" stop-color="#E3EAE0"/>
<stop offset="1" stop-color="#D3DCCE"/>
</linearGradient>
<linearGradient id="panel" x1="175" y1="128" x2="1054" y2="726" gradientUnits="userSpaceOnUse">
<stop stop-color="#FFFFFF" stop-opacity="0.9"/>
<stop offset="1" stop-color="#F5F7F3" stop-opacity="0.74"/>
</linearGradient>
<linearGradient id="bag" x1="682" y1="183" x2="963" y2="685" gradientUnits="userSpaceOnUse">
<stop stop-color="#EEE6D1"/>
<stop offset="1" stop-color="#A58D5A"/>
</linearGradient>
</defs>
<rect width="1200" height="900" fill="url(#bg)"/>
<circle cx="1008" cy="135" r="118" fill="#E7EFE5"/>
<circle cx="183" cy="748" r="146" fill="#E1E8DE"/>
<rect x="132" y="126" width="936" height="645" rx="34" fill="url(#panel)"/>
<rect x="181" y="179" width="356" height="475" rx="30" fill="#F1F1EB"/>
<rect x="181" y="669" width="836" height="36" rx="18" fill="#C4B19A"/>
<ellipse cx="820" cy="714" rx="169" ry="31" fill="#A68D6F" fill-opacity="0.44"/>
<ellipse cx="344" cy="714" rx="127" ry="27" fill="#B29C7F" fill-opacity="0.22"/>
<path d="M244 563C268.767 526.977 306.152 508.966 356.154 508.966C404.65 508.966 442.035 526.977 468.308 563C447.349 593 410.677 608 358.292 608C307.414 608 269.983 593 244 563Z" fill="#F4E4BE"/>
<path d="M265 577C288.714 547.767 319.669 533.151 357.865 533.151C395.304 533.151 426.258 547.767 450.727 577H265Z" fill="#D09443"/>
<rect x="234" y="235" width="230" height="112" rx="20" fill="#DDD9CE"/>
<rect x="257" y="259" width="86" height="14" rx="7" fill="#F6F4EE"/>
<rect x="257" y="288" width="160" height="13" rx="6.5" fill="#ECE8DE"/>
<rect x="257" y="314" width="128" height="10" rx="5" fill="#F1EEE5"/>
<path d="M688 208C688 186.461 705.461 169 727 169H923C944.539 169 962 186.461 962 208V639C962 660.539 944.539 678 923 678H727C705.461 678 688 660.539 688 639V208Z" fill="url(#bag)"/>
<path d="M707 209C707 194.641 718.641 183 733 183H797V678H733C718.641 678 707 666.359 707 652V209Z" fill="#ECE2C8" fill-opacity="0.95"/>
<path d="M688 208C688 186.461 705.461 169 727 169H923C944.539 169 962 186.461 962 208V252H688V208Z" fill="#F6F1E4" fill-opacity="0.74"/>
<rect x="767" y="258" width="121" height="78" rx="15" fill="#FAF8F3"/>
<text x="792" y="307" fill="#665934" font-family="'Noto Sans SC', sans-serif" font-size="30" font-weight="700">RX</text>
<rect x="746" y="377" width="158" height="164" rx="20" fill="#FAFAFB" fill-opacity="0.95"/>
<path d="M780 490C797.453 450 823.399 430 857.836 430C889.772 430 914.968 450 933.424 490H780Z" fill="#E0BD77"/>
<path d="M797 503C812.702 474.516 832.838 460.274 857.408 460.274C881.224 460.274 901.36 474.516 917.816 503H797Z" fill="#C38C41"/>
<text x="751" y="579" fill="#FFFDF8" font-family="'Noto Sans SC', sans-serif" font-size="27" font-weight="700">丙酸钙</text>
<text x="751" y="619" fill="#F6EBD7" font-family="'Noto Sans SC', sans-serif" font-size="22" font-weight="600">Calcium Propionate</text>
</svg>
