<svg width="1200" height="900" viewBox="0 0 1200 900" fill="none" xmlns="http://www.w3.org/2000/svg">
<defs>
<linearGradient id="bg" x1="130" y1="84" x2="1051" y2="840" gradientUnits="userSpaceOnUse">
<stop stop-color="#F5F8F4"/>
<stop offset="0.56" stop-color="#E3EAE0"/>
<stop offset="1" stop-color="#D3DCCE"/>
</linearGradient>
<linearGradient id="panel" x1="175" y1="128" x2="1055" y2="726" gradientUnits="userSpaceOnUse">
<stop stop-color="#FFFFFF" stop-opacity="0.9"/>
<stop offset="1" stop-color="#F5F7F3" stop-opacity="0.74"/>
</linearGradient>
<linearGradient id="bag" x1="682" y1="183" x2="963" y2="685" gradientUnits="userSpaceOnUse">
<stop stop-color="#E1C47F"/>
<stop offset="1" stop-color="#9C681C"/>
</linearGradient>
</defs>
<rect width="1200" height="900" fill="url(#bg)"/>
<circle cx="1009" cy="135" r="118" fill="#E7EFE5"/>
<circle cx="183" cy="748" r="146" fill="#E1E8DE"/>
<rect x="132" y="126" width="936" height="645" rx="34" fill="url(#panel)"/>
<rect x="181" y="179" width="356" height="475" rx="30" fill="#F0F1EA"/>
<rect x="181" y="669" width="836" height="36" rx="18" fill="#C4B19A"/>
<ellipse cx="820" cy="714" rx="169" ry="31" fill="#A68D6F" fill-opacity="0.44"/>
<ellipse cx="344" cy="714" rx="127" ry="27" fill="#B29C7F" fill-opacity="0.22"/>
<ellipse cx="352" cy="561" rx="109" ry="35" fill="#F7F8FA"/>
<circle cx="306" cy="553" r="34" fill="#D7B76A"/>
<circle cx="362" cy="533" r="31" fill="#BF8D38"/>
<circle cx="410" cy="560" r="24" fill="#E2C97D"/>
<circle cx="352" cy="581" r="19" fill="#F0DA9B"/>
<rect x="234" y="235" width="230" height="112" rx="20" fill="#DEDACD"/>
<rect x="257" y="259" width="86" height="14" rx="7" fill="#F6F4EE"/>
<rect x="257" y="288" width="160" height="13" rx="6.5" fill="#ECE8DE"/>
<rect x="257" y="314" width="128" height="10" rx="5" fill="#F1EEE5"/>
<path d="M688 208C688 186.461 705.461 169 727 169H923C944.539 169 962 186.461 962 208V639C962 660.539 944.539 678 923 678H727C705.461 678 688 660.539 688 639V208Z" fill="url(#bag)"/>
<path d="M707 209C707 194.641 718.641 183 733 183H797V678H733C718.641 678 707 666.359 707 652V209Z" fill="#EAD4A7" fill-opacity="0.95"/>
<path d="M688 208C688 186.461 705.461 169 727 169H923C944.539 169 962 186.461 962 208V252H688V208Z" fill="#EDD192" fill-opacity="0.74"/>
<rect x="767" y="258" width="121" height="78" rx="15" fill="#FFF8E4"/>
<text x="792" y="307" fill="#714D14" font-family="'Noto Sans SC', sans-serif" font-size="30" font-weight="700">RX</text>
<rect x="746" y="377" width="158" height="164" rx="20" fill="#FAFAFB" fill-opacity="0.95"/>
<circle cx="825" cy="457" r="57" fill="#F6F7F9"/>
<circle cx="807" cy="446" r="20" fill="#E4CA88"/>
<circle cx="842" cy="434" r="18" fill="#C79643"/>
<circle cx="847" cy="468" r="15" fill="#E9D49B"/>
<text x="751" y="579" fill="#FFFDF8" font-family="'Noto Sans SC', sans-serif" font-size="31" font-weight="700">山梨酸</text>
<text x="751" y="619" fill="#FCECC3" font-family="'Noto Sans SC', sans-serif" font-size="22" font-weight="600">Sorbic Acid</text>
</svg>
