<svg width="1200" height="900" viewBox="0 0 1200 900" fill="none" xmlns="http://www.w3.org/2000/svg">
<defs>
<linearGradient id="bg" x1="130" y1="84" x2="1050" y2="840" gradientUnits="userSpaceOnUse">
<stop stop-color="#F5F8F4"/>
<stop offset="0.56" stop-color="#E3EAE0"/>
<stop offset="1" stop-color="#D3DCCE"/>
</linearGradient>
<linearGradient id="panel" x1="175" y1="128" x2="1055" y2="726" gradientUnits="userSpaceOnUse">
<stop stop-color="#FFFFFF" stop-opacity="0.9"/>
<stop offset="1" stop-color="#F5F7F3" stop-opacity="0.74"/>
</linearGradient>
<linearGradient id="bag" x1="682" y1="183" x2="963" y2="685" gradientUnits="userSpaceOnUse">
<stop stop-color="#D8E5ED"/>
<stop offset="1" stop-color="#648BA1"/>
</linearGradient>
</defs>
<rect width="1200" height="900" fill="url(#bg)"/>
<circle cx="1008" cy="135" r="118" fill="#E7EFE5"/>
<circle cx="183" cy="748" r="146" fill="#E1E8DE"/>
<rect x="132" y="126" width="936" height="645" rx="34" fill="url(#panel)"/>
<rect x="181" y="179" width="356" height="475" rx="30" fill="#EDF1F0"/>
<rect x="181" y="669" width="836" height="36" rx="18" fill="#C4B19A"/>
<ellipse cx="820" cy="714" rx="169" ry="31" fill="#A68D6F" fill-opacity="0.44"/>
<ellipse cx="344" cy="714" rx="127" ry="27" fill="#B29C7F" fill-opacity="0.22"/>
<circle cx="292" cy="553" r="30" fill="#89B3C8"/>
<circle cx="350" cy="524" r="30" fill="#9BBFD0"/>
<circle cx="407" cy="557" r="28" fill="#6E9AB4"/>
<circle cx="328" cy="604" r="22" fill="#83ACC0"/>
<circle cx="392" cy="613" r="19" fill="#6B92A7"/>
<path d="M292 553L350 524L407 557L392 613L328 604L292 553Z" stroke="#648AA1" stroke-width="11" stroke-linejoin="round"/>
<rect x="234" y="235" width="230" height="112" rx="20" fill="#D6E0E3"/>
<rect x="257" y="259" width="86" height="14" rx="7" fill="#F3F7F9"/>
<rect x="257" y="288" width="160" height="13" rx="6.5" fill="#E7EEF1"/>
<rect x="257" y="314" width="128" height="10" rx="5" fill="#EEF4F6"/>
<path d="M688 208C688 186.461 705.461 169 727 169H923C944.539 169 962 186.461 962 208V639C962 660.539 944.539 678 923 678H727C705.461 678 688 660.539 688 639V208Z" fill="url(#bag)"/>
<path d="M707 209C707 194.641 718.641 183 733 183H797V678H733C718.641 678 707 666.359 707 652V209Z" fill="#DCE8EE" fill-opacity="0.95"/>
<path d="M688 208C688 186.461 705.461 169 727 169H923C944.539 169 962 186.461 962 208V252H688V208Z" fill="#E2EEF4" fill-opacity="0.74"/>
<rect x="767" y="258" width="121" height="78" rx="15" fill="#F1F7FB"/>
<text x="792" y="307" fill="#406479" font-family="'Noto Sans SC', sans-serif" font-size="30" font-weight="700">RX</text>
<rect x="746" y="377" width="158" height="164" rx="20" fill="#FAFAFB" fill-opacity="0.95"/>
<circle cx="789" cy="455" r="17" fill="#7BA7BE"/>
<circle cx="832" cy="431" r="18" fill="#95BBCC"/>
<circle cx="873" cy="455" r="16" fill="#6998B2"/>
<circle cx="817" cy="487" r="13" fill="#85B0C4"/>
<circle cx="861" cy="493" r="11" fill="#61899D"/>
<path d="M789 455L832 431L873 455L861 493L817 487L789 455Z" stroke="#678CA1" stroke-width="8" stroke-linejoin="round"/>
<text x="751" y="579" fill="#F8FCFE" font-family="'Noto Sans SC', sans-serif" font-size="29" font-weight="700">磷酸盐</text>
<text x="751" y="619" fill="#E6F3FB" font-family="'Noto Sans SC', sans-serif" font-size="22" font-weight="600">Phosphates</text>
</svg>
